<svg xmlns="http://www.w3.org/2000/svg" viewBox="0 0 200 200" width="200" height="200">
  <defs>
    <linearGradient id="cameraGradient" x1="0%" y1="0%" x2="100%" y2="100%">
      <stop offset="0%" style="stop-color:#1976d2;stop-opacity:1" />
      <stop offset="100%" style="stop-color:#0d47a1;stop-opacity:1" />
    </linearGradient>
    <linearGradient id="recordGradient" x1="0%" y1="0%" x2="100%" y2="100%">
      <stop offset="0%" style="stop-color:#f44336;stop-opacity:1" />
      <stop offset="100%" style="stop-color:#c62828;stop-opacity:1" />
    </linearGradient>
  </defs>
  
  <!-- Background circle -->
  <circle cx="100" cy="100" r="95" fill="#ffffff" stroke="#e0e0e0" stroke-width="2"/>
  
  <!-- Video camera/stream icon -->
  <g transform="translate(35, 60)">
    <!-- Camera body -->
    <rect x="0" y="15" width="70" height="50" rx="5" fill="url(#cameraGradient)" stroke="#0d47a1" stroke-width="2"/>
    
    <!-- Lens -->
    <circle cx="25" cy="40" r="15" fill="#424242" stroke="#212121" stroke-width="2"/>
    <circle cx="25" cy="40" r="10" fill="#616161" stroke="#424242" stroke-width="1"/>
    <circle cx="25" cy="40" r="6" fill="#1976d2" opacity="0.6"/>
    
    <!-- Viewfinder -->
    <rect x="50" y="25" width="15" height="30" rx="2" fill="#616161" stroke="#424242" stroke-width="1"/>
    
    <!-- Stream lines (indicating live/active) -->
    <path d="M 75 25 Q 85 25 85 30" stroke="#1976d2" stroke-width="2" fill="none" stroke-linecap="round"/>
    <path d="M 75 35 Q 90 35 90 40" stroke="#1976d2" stroke-width="2" fill="none" stroke-linecap="round"/>
    <path d="M 75 45 Q 85 45 85 50" stroke="#1976d2" stroke-width="2" fill="none" stroke-linecap="round"/>
  </g>
  
  <!-- Record button -->
  <g transform="translate(120, 110)">
    <!-- Outer ring -->
    <circle cx="25" cy="25" r="28" fill="url(#recordGradient)" opacity="0.3"/>
    <circle cx="25" cy="25" r="25" fill="url(#recordGradient)" stroke="#c62828" stroke-width="2"/>
    
    <!-- Inner record dot -->
    <circle cx="25" cy="25" r="12" fill="#ffffff"/>
    
    <!-- REC indicator -->
    <circle cx="25" cy="25" r="8" fill="#f44336">
      <animate attributeName="opacity" values="1;0.4;1" dur="2s" repeatCount="indefinite"/>
    </circle>
  </g>
  
  <!-- Text label -->
  <text x="100" y="190" font-family="Arial, sans-serif" font-size="14" font-weight="bold" text-anchor="middle" fill="#424242">STREAM RECORDER</text>
</svg>
